# xmcd
#
# Track frame offsets:
#	150
#	15705
#	31827
#	43997
#	61295
#	72950
#	84522
#	100335
#	118965
#	129577
#
# Disc length: 2005 seconds
#
# Revision: 3
# Processed by: cddbd v1.5.2PL0 Copyright (c) Steve Scherf et al.
# Submitted via: EZCDAudioConverter 7.0.7.1
#
DISCID=8907d30a
DTITLE=Mahalia Jackson - Christmas With Mahalia
DYEAR=1968
DGENRE=Christmas
TTITLE0=It Came Upon The Midnight Clear
TTITLE1=O Holy Night
TTITLE2=The First Noel
TTITLE3=No Room In The Inn
TTITLE4=Silver Bells
TTITLE5=Happy Birthday To You, Our Lord
TTITLE6=What Child Is This
TTITLE7=White Christmas
TTITLE8=Do You Hear What I Hear?
TTITLE9=Lo, How A Rose E'er Blooming
EXTD=
EXTT0=
EXTT1=
EXTT2=
EXTT3=
EXTT4=
EXTT5=
EXTT6=
EXTT7=
EXTT8=
EXTT9=
PLAYORDER=
